<?xml version="1.0" encoding="UTF-8"?>
<svg width="30px" height="30px" viewBox="0 0 30 30" version="1.1" xmlns="http://www.w3.org/2000/svg" xmlns:xlink="http://www.w3.org/1999/xlink">
    <!-- Generator: Sketch 49 (51002) - http://www.bohemiancoding.com/sketch -->
    <title>sina_weibo_c</title>
    <desc>Created with Sketch.</desc>
    <defs></defs>
    <g id="Page-1" stroke="none" stroke-width="1" fill="none" fill-rule="evenodd">
        <g id="web" transform="translate(-631.000000, -2979.000000)" fill="#FFFFFF">
            <g id="Group-12" transform="translate(557.000000, 2912.000000)">
                <g id="Group-11" transform="translate(4.000000, 67.000000)">
                    <path d="M85,30 C76.7157283,30 70,23.2842717 70,15 C70,6.71572834 76.7157283,0 85,0 C93.2842717,0 100,6.71572834 100,15 C100,23.2842717 93.2842717,30 85,30 Z M83.5,22.8 C88.6362484,22.8 92.7599272,20.1137087 92.7599274,16.8 C92.7599274,14.0005806 89.2542667,14.0005806 89.2542667,13.8198761 C89.2542667,13.6391716 91,12.0128345 89.2542667,11.000891 C87.5085335,9.98894749 84.3153686,11.527474 84.4113949,11.3622994 C85.7847466,9 83.8217774,8.25418739 82.8211977,8.25418739 C80.4359022,8.25418739 74.2,13.4862913 74.2,16.8 C74.2,20.1137087 78.3637516,22.8 83.5,22.8 Z M83.7427751,20.9620455 C80.4613152,21.4232246 77.558158,20.0679875 77.2583916,17.9350386 C76.9586252,15.8020897 79.375765,13.6991336 82.6572249,13.2379545 C85.9386848,12.7767754 88.841842,14.1320125 89.1416084,16.2649614 C89.4413748,18.3979103 87.024235,20.5008664 83.7427751,20.9620455 Z M83.1362861,20.3810224 C85.0879821,20.0016511 86.4138597,18.3756417 86.097717,16.7492285 C85.7815743,15.1228152 83.9431281,14.111888 81.9914322,14.4912593 C80.0397363,14.8706305 78.7138586,16.49664 79.0300013,18.1230532 C79.346144,19.7494665 81.1845902,20.7603936 83.1362861,20.3810224 Z M83.2,17.4 C82.8686291,17.4 82.6,17.1313709 82.6,16.8 C82.6,16.4686291 82.8686291,16.2 83.2,16.2 C83.5313709,16.2 83.8,16.4686291 83.8,16.8 C83.8,17.1313709 83.5313709,17.4 83.2,17.4 Z M81.8164973,18.7686629 C81.2158493,19.0487496 80.5586366,18.9106138 80.3485715,18.4601278 C80.1385064,18.0096418 80.4551364,17.4173956 81.0557844,17.1373088 C81.6564324,16.8572221 82.3136451,16.9953579 82.5237102,17.4458439 C82.7337753,17.8963299 82.4171453,18.4885761 81.8164973,18.7686629 Z M91.5311392,9.55525754 C90.4469142,8.57945484 89.589634,8.91027425 89.589634,8.91027425 C89.0430743,8.95982841 88.6,9.44067884 88.6,9.99974901 L88.6,9.0253394 C88.6,9.57748554 89.0502042,10.0036437 89.6009328,10.0317344 C89.6009328,10.0317344 90.2300692,9.84438442 90.8083225,10.5310602 C91.3865757,11.217736 91.0406815,11.7803697 91.0406815,11.7803697 C90.9123532,12.3079572 91.264991,12.7356512 91.8049928,12.7356512 L91.0765815,12.7356513 C91.6270273,12.7356512 92.1536554,12.2888749 92.2036325,11.7423093 C92.2036325,11.7423093 92.6153642,10.5310602 91.5311392,9.55525754 Z M93.5550262,7.60365228 C91.5672803,5.72432849 89.4937775,6.03300536 89.4937775,6.03300536 C88.668787,6.014777 88,6.67080111 88,7.49843218 L88,6.10522011 C88,6.93278134 88.6760276,7.5808422 89.5067224,7.61870388 C89.5067224,7.61870388 91.4588577,7.28823584 92.6515052,9.00000014 C93.8441526,10.7117645 93.3862877,12.0156799 93.3862877,12.0156799 C93.2998389,12.8324696 93.8949312,13.4946085 94.7344595,13.4946085 L93.3152542,13.4946085 C94.1462777,13.4946085 94.901837,12.8384265 94.9466391,11.9986215 C94.9466391,11.9986215 95.5427723,9.4829759 93.5550262,7.60365228 Z" id="sina_weibo_c"></path>
                </g>
            </g>
        </g>
    </g>
</svg>