<?xml version="1.0" encoding="UTF-8"?>
<svg width="30px" height="30px" viewBox="0 0 30 30" version="1.1" xmlns="http://www.w3.org/2000/svg" xmlns:xlink="http://www.w3.org/1999/xlink">
    <!-- Generator: Sketch 49 (51002) - http://www.bohemiancoding.com/sketch -->
    <title>twitter_c</title>
    <desc>Created with Sketch.</desc>
    <defs></defs>
    <g id="Page-1" stroke="none" stroke-width="1" fill="none" fill-rule="evenodd">
        <g id="web" transform="translate(-771.000000, -2979.000000)" fill="#FFFFFF">
            <g id="Group-12" transform="translate(557.000000, 2912.000000)">
                <g id="Group-11" transform="translate(4.000000, 67.000000)">
                    <path d="M225,30 C216.715728,30 210,23.2842717 210,15 C210,6.71572834 216.715728,0 225,0 C233.284272,0 240,6.71572834 240,15 C240,23.2842717 233.284272,30 225,30 Z M220.590673,11.1581439 C217.706674,9.70214417 217.006674,8.38658192 217.006674,8.38658192 C217.006674,8.38658192 216.558674,9.17058178 216.754674,10.6265815 C216.950674,12.0825812 218.328226,13.9559312 218.328226,13.9559312 L216.670674,13.286581 C216.670674,13.286581 216.754674,14.2105809 217.398674,15.1625807 C218.042674,16.1145805 220.310673,17.3185803 220.310673,17.3185803 L218.154674,17.3465803 C218.154674,17.3465803 218.350674,17.7945802 219.134674,18.55058 C219.918674,19.3065799 222.102673,19.9785798 222.102673,19.9785798 C222.102673,19.9785798 220.566663,21.0542305 219.498674,21.4625795 C218.430684,21.8709286 216.754674,21.9665794 216.754674,21.9665794 C216.754674,21.9665794 219.250474,23.5195168 223.082673,23.1425792 C226.914871,22.7656416 229.552926,20.974669 231.594671,17.9905801 C233.636417,15.0064911 233.442671,11.1305814 233.442671,11.1305814 C233.442671,11.1305814 233.666204,10.8736093 234.208564,10.3761913 C234.750924,9.87877331 234.917952,9.63455871 234.917952,9.63455871 L233.562786,9.77820654 L234.44285,8.20734132 C234.44285,8.20734132 233.905685,8.45150729 233.534553,8.58824023 C233.163421,8.72497317 232.665322,8.86170611 232.665322,8.86170611 C232.665322,8.86170611 230.699984,6.45414478 227.843985,7.88214452 C224.987985,9.31014402 225.911985,12.5301437 225.911985,12.5301437 C225.911985,12.5301437 223.474673,12.6141436 220.590673,11.1581439 Z" id="twitter_c"></path>
                </g>
            </g>
        </g>
    </g>
</svg>